<svg width="23" height="19" viewBox="0 0 23 19" fill="none" xmlns="http://www.w3.org/2000/svg">
<path d="M6.91003 3.53905C6.91003 3.27697 7.12329 3.06455 7.38643 3.06455H18.5239C18.6628 3.06455 18.7948 3.12497 18.8853 3.22984C18.9758 3.33476 19.0158 3.47384 18.9949 3.6106L18.519 6.71895C18.4831 6.95377 18.28 7.12201 18.0487 7.12201C18.0248 7.12201 18.0006 7.12027 17.9763 7.11653C17.7161 7.07704 17.5374 6.83499 17.5771 6.57591L17.9693 4.01356H7.38643C7.12329 4.01356 6.91003 3.80108 6.91003 3.53905ZM10.5269 11.6283H6.30489L4.54464 1.39436C4.50547 1.16655 4.30718 1 4.07507 1H1.4764C1.21327 1 1 1.21242 1 1.4745C1 1.73658 1.21327 1.949 1.4764 1.949H3.67335L5.4336 12.1829C5.47336 12.4142 5.67477 12.5774 5.9026 12.5774C5.92927 12.5773 5.95643 12.5751 5.98358 12.5705C5.98549 12.5701 5.98734 12.5698 5.98925 12.5694C6.0173 12.5746 6.04626 12.5772 6.07579 12.5772H10.5269C10.7901 12.5772 11.0033 12.3648 11.0033 12.1027C11.0033 11.8407 10.7901 11.6283 10.5269 11.6283ZM9.60609 14.9861V15.8282C9.60609 16.6196 8.95961 17.2635 8.16497 17.2635C7.37034 17.2635 6.72386 16.6196 6.72386 15.8282V14.9861C6.72386 14.1947 7.37028 13.5508 8.16487 13.5508C8.95956 13.5508 9.60609 14.1947 9.60609 14.9861ZM8.65328 14.9861C8.65328 14.7179 8.43425 14.4998 8.16497 14.4998H8.16487C7.8957 14.4998 7.67666 14.7179 7.67666 14.9861V15.8282C7.67666 16.0963 7.8957 16.3145 8.16487 16.3145C8.43419 16.3145 8.65328 16.0963 8.65328 15.8282V14.9861ZM21.9341 10.5605C21.653 12.81 20.5092 14.8158 18.7134 16.2084C17.202 17.3804 15.3811 18 13.496 18C13.141 18 12.784 17.978 12.4261 17.9336C12.1268 17.8965 11.8251 17.8426 11.5291 17.7737C11.3304 17.7275 11.1833 17.5603 11.1633 17.3581C11.1016 16.732 11.1099 16.0967 11.1882 15.4701C11.7687 10.8263 16.0341 7.51843 20.6964 8.09679C20.996 8.13402 21.2977 8.18785 21.5934 8.2567C21.792 8.30299 21.939 8.47002 21.959 8.67215C22.021 9.29797 22.0126 9.93332 21.9341 10.5605ZM21.0369 9.1098C20.8843 9.08138 20.731 9.05755 20.5785 9.03857C16.4379 8.52527 12.6493 11.4629 12.1337 15.5874C12.1042 15.8226 12.086 16.0591 12.0787 16.2959L16.4371 12.4927C16.6349 12.32 16.9359 12.3397 17.1093 12.5369C17.2827 12.734 17.2628 13.0338 17.0649 13.2065L12.7058 17.0103C14.6562 17.2108 16.5758 16.6631 18.1279 15.4595C19.7229 14.2227 20.7389 12.4411 20.9885 10.4432C21.0441 10.0005 21.0602 9.55341 21.0369 9.1098Z" fill="#676869" stroke="#676869" stroke-width="0.4"/>
</svg>
