<svg width="20" height="14" viewBox="0 0 20 14" fill="none" xmlns="http://www.w3.org/2000/svg">
<path d="M11.8527 11.2459H6.91889V10.4991H11.1059V1.74677H1.82465V10.4991H3.38418V11.2459H1.07788V1H11.8527V11.2459Z" fill="#676869" stroke="#676869" stroke-width="0.5"/>
<path d="M19.0002 11.2462H16.6381V10.4995H18.2534V7.09331L14.9856 3.40396H11.8527V10.4995H13.1041V11.2462H11.106V2.65723H15.3218L19.0002 6.81V11.2462Z" fill="#676869" stroke="#676869" stroke-width="0.5"/>
<path d="M14.8935 13.6806C13.6647 13.6806 12.6653 12.681 12.6653 11.4524C12.6653 10.2237 13.6647 9.22412 14.8935 9.22412C16.1223 9.22412 17.1221 10.2237 17.1221 11.4524C17.1221 12.681 16.1223 13.6806 14.8935 13.6806ZM14.8935 9.97086C14.0768 9.97086 13.412 10.6354 13.412 11.4524C13.412 12.2693 14.0768 12.9338 14.8935 12.9338C15.7106 12.9338 16.3754 12.2693 16.3754 11.4524C16.3754 10.6354 15.7106 9.97086 14.8935 9.97086Z" fill="#676869" stroke="#676869" stroke-width="0.5"/>
<path d="M5.18406 13.6806C3.95525 13.6806 2.95581 12.681 2.95581 11.4524C2.95581 10.2237 3.95529 9.22412 5.18406 9.22412C6.41283 9.22412 7.41227 10.2237 7.41227 11.4524C7.41227 12.681 6.41287 13.6806 5.18406 13.6806ZM5.18406 9.97086C4.36728 9.97086 3.70255 10.6354 3.70255 11.4524C3.70255 12.2693 4.36728 12.9338 5.18406 12.9338C6.0008 12.9338 6.6655 12.2693 6.6655 11.4524C6.66553 10.6354 6.00084 9.97086 5.18406 9.97086Z" fill="#676869" stroke="#676869" stroke-width="0.5"/>
</svg>
